<?xml version="1.0" encoding="utf-8"?>
<!-- Generator: Adobe Illustrator 17.0.0, SVG Export Plug-In . SVG Version: 6.00 Build 0)  -->
<!DOCTYPE svg PUBLIC "-//W3C//DTD SVG 1.1//EN" "http://www.w3.org/Graphics/SVG/1.1/DTD/svg11.dtd">
<svg version="1.1" id="图层_1" xmlns="http://www.w3.org/2000/svg" xmlns:xlink="http://www.w3.org/1999/xlink" x="0px" y="0px"
	 width="22px" height="18px" viewBox="0 0 22 18" enable-background="new 0 0 22 18" xml:space="preserve">
<g>
	<g>
		<g>
			<g>
				<path id="SVGID_1_" fill="#999999" d="M19.835,4.084H1.834c-0.276,0-0.501-0.225-0.501-0.501s0.225-0.501,0.501-0.501h18.001
					c0.276,0,0.498,0.225,0.498,0.501C20.333,3.86,20.111,4.084,19.835,4.084L19.835,4.084z M19.835,9.084H1.834
					c-0.276,0-0.501-0.225-0.501-0.501s0.225-0.501,0.501-0.501h18.001c0.276,0,0.498,0.225,0.498,0.501
					C20.333,8.859,20.111,9.084,19.835,9.084L19.835,9.084z M19.835,14.084H1.834c-0.276,0-0.501-0.225-0.501-0.501
					s0.225-0.498,0.501-0.498h18.001c0.276,0,0.498,0.222,0.498,0.498S20.111,14.084,19.835,14.084L19.835,14.084z"/>
			</g>
		</g>
	</g>
</g>
</svg>
