<?xml version="1.0" encoding="utf-8"?>
<!-- Generator: Adobe Illustrator 17.0.0, SVG Export Plug-In . SVG Version: 6.00 Build 0)  -->
<!DOCTYPE svg PUBLIC "-//W3C//DTD SVG 1.1//EN" "http://www.w3.org/Graphics/SVG/1.1/DTD/svg11.dtd">
<svg version="1.1" id="图层_1" xmlns="http://www.w3.org/2000/svg" xmlns:xlink="http://www.w3.org/1999/xlink" x="0px" y="0px"
	 width="22px" height="18px" viewBox="0 0 22 18" enable-background="new 0 0 22 18" xml:space="preserve">
<g>
	<g>
		<defs>
			<path id="SVGID_1_" d="M10.832,8.117C8.676,8.117,6.92,6.315,6.92,4.1s1.754-4.019,3.913-4.019s3.913,1.804,3.913,4.019
				C14.745,6.315,12.989,8.117,10.832,8.117L10.832,8.117z M10.832,1.374c-1.465,0-2.656,1.223-2.656,2.726s1.191,2.726,2.656,2.726
				s2.654-1.223,2.654-2.726S12.295,1.374,10.832,1.374L10.832,1.374z M17.679,17.667H3.984c-0.807,0-1.467-0.676-1.467-1.508
				v-1.838c0-0.832,0.66-1.508,1.467-1.508h13.695c0.809,0,1.467,0.676,1.467,1.508v1.838
				C19.146,16.991,18.488,17.667,17.679,17.667L17.679,17.667z M3.984,14.107c-0.113,0-0.208,0.097-0.208,0.215v1.838
				c0,0.117,0.095,0.217,0.208,0.217h13.695c0.113,0,0.21-0.099,0.21-0.217v-1.838c0-0.118-0.097-0.215-0.21-0.215L3.984,14.107
				L3.984,14.107z M14.879,14.107c-0.007-0.002-0.011,0-0.018,0H6.802c-0.233,0-0.448-0.133-0.556-0.346
				c-0.109-0.212-0.093-0.47,0.038-0.667l4.03-5.988c0.235-0.348,0.798-0.35,1.033,0l3.96,5.884c0.122,0.118,0.199,0.285,0.199,0.47
				C15.507,13.817,15.224,14.107,14.879,14.107L14.879,14.107z M8,12.814h5.662l-2.83-4.206L8,12.814L8,12.814z"/>
		</defs>
		<use xlink:href="#SVGID_1_"  overflow="visible" fill="#999999"/>
		<clipPath id="SVGID_2_">
			<use xlink:href="#SVGID_1_"  overflow="visible"/>
		</clipPath>
	</g>
</g>
</svg>
