<?xml version="1.0" encoding="utf-8"?>
<!-- Generator: Adobe Illustrator 17.0.0, SVG Export Plug-In . SVG Version: 6.00 Build 0)  -->
<!DOCTYPE svg PUBLIC "-//W3C//DTD SVG 1.1//EN" "http://www.w3.org/Graphics/SVG/1.1/DTD/svg11.dtd">
<svg version="1.1" id="图层_1" xmlns="http://www.w3.org/2000/svg" xmlns:xlink="http://www.w3.org/1999/xlink" x="0px" y="0px"
	 width="22px" height="18px" viewBox="0 0 22 18" enable-background="new 0 0 22 18" xml:space="preserve">
<g>
	<g>
		<g>
			<defs>
				<path id="SVGID_1_" d="M16.269,18H6.333c-1.22,0-2.208-1.003-2.208-2.241V2.307c0-1.238,0.988-2.241,2.208-2.241h6.624
					c0.74-0.013,1.034,0.015,1.104,0.015V0.066l4.418,4.484c0,0.821,0,0.944,0,1.119v10.09C18.479,16.997,17.489,18,16.269,18
					L16.269,18L16.269,18z M14.061,1.185c0,1.336,0,2.243,0,2.243c0,0.618,0.495,1.122,1.106,1.122h2.208L14.061,1.185L14.061,1.185
					L14.061,1.185z M17.375,5.669c-1.286,0-2.208,0-2.208,0c-1.22,0-2.21-1.003-2.21-2.241c0,0-0.024-0.9-0.015-2.243H6.333
					c-0.609,0-1.104,0.502-1.104,1.122v13.452c0,0.618,0.495,1.119,1.104,1.119h9.936c0.611,0,1.106-0.502,1.106-1.119V5.669
					L17.375,5.669L17.375,5.669z M14.615,13.516H7.989c-0.305,0-0.552-0.25-0.552-0.561c0-0.309,0.248-0.559,0.552-0.559h6.626
					c0.304,0,0.55,0.25,0.55,0.559C15.165,13.266,14.92,13.516,14.615,13.516L14.615,13.516L14.615,13.516z M14.615,10.153H7.989
					c-0.305,0-0.552-0.252-0.552-0.561s0.248-0.561,0.552-0.561h6.626c0.304,0,0.55,0.252,0.55,0.561S14.92,10.153,14.615,10.153
					L14.615,10.153L14.615,10.153z"/>
			</defs>
			<use xlink:href="#SVGID_1_"  overflow="visible" fill="#999999"/>
			<clipPath id="SVGID_2_">
				<use xlink:href="#SVGID_1_"  overflow="visible"/>
			</clipPath>
		</g>
	</g>
</g>
</svg>
