<?xml version="1.0" encoding="utf-8"?>
<!-- Generator: Adobe Illustrator 17.0.0, SVG Export Plug-In . SVG Version: 6.00 Build 0)  -->
<!DOCTYPE svg PUBLIC "-//W3C//DTD SVG 1.1//EN" "http://www.w3.org/Graphics/SVG/1.1/DTD/svg11.dtd">
<svg version="1.1" id="图层_1" xmlns="http://www.w3.org/2000/svg" xmlns:xlink="http://www.w3.org/1999/xlink" x="0px" y="0px"
	 width="22px" height="18px" viewBox="0 0 22 18" enable-background="new 0 0 22 18" xml:space="preserve">
<g>
	<g>
		<defs>
			<path id="SVGID_1_" d="M18.424,13.19l-0.172,0.411l-7.693,4.336h-0.267l-7.693-4.352l-0.172-0.303v-8.58l0.156-0.349
				c0.08-0.046,0.175-0.092,0.283-0.168C4.263,3.397,8.564,0.97,9.977,0.168h0.016c0.11-0.062,0.267-0.106,0.425-0.106
				c0.156,0,0.312,0.044,0.439,0.136h0.016l7.33,4.154l0.221,0.333V13.19L18.424,13.19z M10.731,17.239l6.813-3.881l-4.897-2.76
				c-0.439,0.593-1.13,1.002-1.916,1.091L10.731,17.239L10.731,17.239z M10.104,17.255v-5.579c-0.786-0.092-1.475-0.501-1.914-1.092
				l-4.883,2.773L10.104,17.255L10.104,17.255z M3.024,12.813l4.851-2.746C7.732,9.734,7.638,9.371,7.638,8.976
				c0-0.393,0.08-0.758,0.237-1.091L3.04,5.155L3.024,12.813L3.024,12.813z M10.104,0.713C8.927,1.382,4.766,3.76,3.431,4.518
				C3.369,4.55,3.323,4.58,3.274,4.61l4.899,2.76c0.439-0.593,1.131-1.002,1.914-1.091V0.713H10.104L10.104,0.713z M8.268,8.976
				c0,1.167,0.956,2.107,2.151,2.107c1.193,0,2.151-0.94,2.151-2.107s-0.958-2.107-2.151-2.107C9.223,6.869,8.268,7.825,8.268,8.976
				L8.268,8.976z M10.731,0.713v5.579c0.786,0.092,1.478,0.501,1.916,1.091L17.53,4.61L10.731,0.713L10.731,0.713z M12.96,7.901
				c0.142,0.333,0.237,0.696,0.237,1.091c0,0.393-0.078,0.758-0.237,1.091l4.837,2.73V5.155L12.96,7.901L12.96,7.901z"/>
		</defs>
		<use xlink:href="#SVGID_1_"  overflow="visible" fill="#999999"/>
		<clipPath id="SVGID_2_">
			<use xlink:href="#SVGID_1_"  overflow="visible"/>
		</clipPath>
	</g>
</g>
</svg>
