<?xml version="1.0" encoding="utf-8"?>
<!-- Generator: Adobe Illustrator 17.0.0, SVG Export Plug-In . SVG Version: 6.00 Build 0)  -->
<!DOCTYPE svg PUBLIC "-//W3C//DTD SVG 1.1//EN" "http://www.w3.org/Graphics/SVG/1.1/DTD/svg11.dtd">
<svg version="1.1" id="图层_1" xmlns="http://www.w3.org/2000/svg" xmlns:xlink="http://www.w3.org/1999/xlink" x="0px" y="0px"
	 width="50px" height="53px" viewBox="0 0 50 53" enable-background="new 0 0 50 53" xml:space="preserve">
<g>
	<g>
		<g>
			<g>
				<defs>
					<path id="SVGID_1_" d="M45.421,47.072c1.506,0,2.73-1.224,2.73-2.728V9.068c0-1.504-1.224-2.728-2.73-2.728H4.55
						c-1.506,0-2.73,1.224-2.73,2.728v35.276c0,1.504,1.224,2.728,2.73,2.728h1.208l1.839-2.626l1.491-2.126l1.488,2.126l1.84,2.626
						H13.7l1.839-2.626l1.491-2.126l1.488,2.126l1.839,2.626h1.284l1.839-2.626l1.488-2.126l1.491,2.126l1.839,2.626h1.282
						l1.839-2.626l1.488-2.126l1.491,2.126l1.839,2.626h1.284l1.839-2.626l1.489-2.126l1.491,2.126l1.839,2.626L45.421,47.072
						 M45.421,48.891h-2.186l-2.384-3.401l-2.382,3.401h-3.177L32.91,45.49l-2.384,3.401h-3.175L24.97,45.49l-2.381,3.401h-3.177
						L17.03,45.49l-2.384,3.401H11.47L9.088,45.49l-2.381,3.401H4.55c-2.513,0-4.55-2.037-4.55-4.547V9.068
						c0-2.51,2.037-4.547,4.55-4.547h40.872c2.512,0,4.548,2.037,4.548,4.547v35.276C49.969,46.854,47.934,48.891,45.421,48.891
						L45.421,48.891L45.421,48.891z"/>
				</defs>
				<use xlink:href="#SVGID_1_"  overflow="visible" fill="#BA9F3E"/>
				<clipPath id="SVGID_2_">
					<use xlink:href="#SVGID_1_"  overflow="visible"/>
				</clipPath>
			</g>
		</g>
	</g>
	<g enable-background="new    ">
		<g>
			<g>
				<path id="SVGID_3_" fill="#BA9F3E" d="M40.987,32.974H6.367V30.67h34.62V32.974L40.987,32.974L40.987,32.974z M33.314,28.424
					H6.367v-2.273h26.947V28.424L33.314,28.424L33.314,28.424z M40.987,23.877H6.367v-2.244h34.62V23.877L40.987,23.877
					L40.987,23.877z M42.267,15.891h-1.28V9.097h1.28V15.891L42.267,15.891L42.267,15.891z M38.059,15.891h-1.222V9.097h1.222
					V15.891L38.059,15.891L38.059,15.891z M33.938,15.891h-1.28V9.097h1.28V15.891L33.938,15.891L33.938,15.891z M29.788,15.891
					h-1.279V9.097h1.279V15.891L29.788,15.891L29.788,15.891z M25.61,15.891h-1.306V9.097h1.306V15.891L25.61,15.891L25.61,15.891z
					 M21.46,15.891h-1.277V9.097h1.277V15.891L21.46,15.891L21.46,15.891z M17.281,15.891H16.03V9.097h1.251V15.891L17.281,15.891
					L17.281,15.891z M13.134,15.891h-1.308V9.097h1.308V15.891L13.134,15.891L13.134,15.891z M8.955,15.891h-1.28V9.097h1.28V15.891
					L8.955,15.891L8.955,15.891z"/>
			</g>
		</g>
	</g>
</g>
</svg>
