<?xml version="1.0" encoding="utf-8"?>
<!-- Generator: Adobe Illustrator 17.0.0, SVG Export Plug-In . SVG Version: 6.00 Build 0)  -->
<!DOCTYPE svg PUBLIC "-//W3C//DTD SVG 1.1//EN" "http://www.w3.org/Graphics/SVG/1.1/DTD/svg11.dtd">
<svg version="1.1" id="图层_1" xmlns="http://www.w3.org/2000/svg" xmlns:xlink="http://www.w3.org/1999/xlink" x="0px" y="0px"
	 width="50px" height="53px" viewBox="0 0 50 53" enable-background="new 0 0 50 53" xml:space="preserve">
<g>
	<g>
		<g>
			<defs>
				<path id="SVGID_1_" d="M46.456,45.818c0.78,0,1.365-0.447,1.365-0.848V18.461c0-0.34-0.429-0.719-1.043-0.819V32.21
					c0,2.299-1.923,4.694-4.472,5.576l-23.241,8.031L46.456,45.818 M1.998,45.818c0.125,0,0.333-0.02,0.617-0.118l36.898-12.754
					c1.186-0.41,1.973-1.512,1.973-2.063L41.481,4.43c-0.036-0.005-0.082-0.009-0.138-0.009c-0.125,0-0.333,0.021-0.617,0.118
					L3.828,17.293c-1.184,0.408-1.97,1.512-1.97,2.061L1.86,45.809C1.896,45.813,1.941,45.818,1.998,45.818 M37.542,15.332
					L37.542,15.332L37.542,15.332L37.542,15.332L37.542,15.332c0.907,0,1.75,0.299,2.374,0.844c0.705,0.612,1.093,1.481,1.093,2.444
					c0,1.93-1.594,3.83-3.707,4.422c-0.419,0.118-0.839,0.177-1.247,0.177c-1.977,0-3.465-1.413-3.465-3.286
					c0-1.93,1.594-3.832,3.709-4.424C36.715,15.391,37.134,15.332,37.542,15.332 M46.456,47.675H8.009l33.692-11.643
					c1.78-0.617,3.22-2.329,3.22-3.821V15.758h1.535c1.78,0,3.222,1.213,3.222,2.703V44.97
					C49.678,46.462,48.236,47.675,46.456,47.675L46.456,47.675L46.456,47.675z M1.998,47.675C0.825,47.675,0,46.99,0,45.863V19.354
					c0-1.49,1.44-3.202,3.222-3.816L40.12,2.784c0.433-0.15,0.846-0.22,1.222-0.22c1.174,0,2,0.685,2,1.814v26.504
					c0,1.492-1.442,3.204-3.222,3.818L3.222,47.455C2.789,47.605,2.374,47.675,1.998,47.675L1.998,47.675L1.998,47.675z
					 M37.542,17.189c-0.234,0-0.483,0.034-0.744,0.107c-1.302,0.365-2.354,1.544-2.354,2.637c0,0.873,0.673,1.429,1.61,1.429
					c0.234,0,0.483-0.034,0.744-0.107c1.297-0.363,2.354-1.542,2.354-2.635C39.152,17.744,38.479,17.189,37.542,17.189
					L37.542,17.189L37.542,17.189z"/>
			</defs>
			<use xlink:href="#SVGID_1_"  overflow="visible" fill="#8E611B"/>
			<clipPath id="SVGID_2_">
				<use xlink:href="#SVGID_1_"  overflow="visible"/>
			</clipPath>
		</g>
	</g>
</g>
</svg>
