<?xml version="1.0" encoding="utf-8"?>
<!-- Generator: Adobe Illustrator 17.0.0, SVG Export Plug-In . SVG Version: 6.00 Build 0)  -->
<!DOCTYPE svg PUBLIC "-//W3C//DTD SVG 1.1//EN" "http://www.w3.org/Graphics/SVG/1.1/DTD/svg11.dtd">
<svg version="1.1" id="图层_1" xmlns="http://www.w3.org/2000/svg" xmlns:xlink="http://www.w3.org/1999/xlink" x="0px" y="0px"
	 width="50px" height="53px" viewBox="0 0 50 53" enable-background="new 0 0 50 53" xml:space="preserve">
<g>
	<g>
		<g>
			<g>
				<g>
					<path id="SVGID_1_" fill="#ED8E48" d="M45.186,47.638c1.54,0,2.793-1.253,2.793-2.792V7.601c0-1.54-1.253-2.793-2.793-2.793
						H14.518L1.86,14.264v30.582c0,1.54,1.255,2.792,2.795,2.792H45.186 M45.186,49.501H4.655C2.083,49.501,0,47.415,0,44.846
						V13.331L14.899,2.946h30.287c2.57,0,4.655,2.085,4.655,4.655v37.245C49.841,47.415,47.756,49.501,45.186,49.501L45.186,49.501
						L45.186,49.501z"/>
				</g>
			</g>
		</g>
	</g>
	<g enable-background="new    ">
		<g>
			<g>
				<path id="SVGID_3_" fill="#ED8E48" d="M14.868,13.857c0.514,0,0.93-0.418,0.93-0.93V5.738c0-0.289-0.132-0.55-0.343-0.723
					l-13.01,8.773c0.109,0.045,0.225,0.068,0.348,0.068h12.075 M40.151,41.382H9.688v-2.358h30.464L40.151,41.382L40.151,41.382
					L40.151,41.382z M40.151,35.533H9.688v-2.326h30.464L40.151,35.533L40.151,35.533L40.151,35.533z M14.868,15.719H2.793
					c-1.455,0-2.652-1.114-2.781-2.536L13.9,3.945c1.401,0.152,3.437-0.577,3.437,0.862l0.324,8.118
					C17.66,14.468,16.41,15.719,14.868,15.719L14.868,15.719L14.868,15.719z"/>
			</g>
		</g>
	</g>
	<g>
		<g>
			<path fill="#E78D49" d="M29.834,14.215h2.15l-5.393,8.366h4.623v1.329h-4.861v1.748h4.861v1.352h-4.861v3.938h-1.86V27.01h-4.809
				v-1.352h4.809V23.91h-4.809v-1.329h4.569l-5.366-8.366h2.178l4.357,6.851L29.834,14.215z"/>
		</g>
	</g>
</g>
</svg>
